<svg width="20" height="20" viewBox="0 0 20 20" fill="none" xmlns="http://www.w3.org/2000/svg">
<g id="Group 920">
<path id="Rectangle 939" d="M7 10C7 9.06812 7 8.60218 7.15224 8.23463C7.35523 7.74458 7.74458 7.35523 8.23463 7.15224C8.60218 7 9.06812 7 10 7V7C10.9319 7 11.3978 7 11.7654 7.15224C12.2554 7.35523 12.6448 7.74458 12.8478 8.23463C13 8.60218 13 9.06812 13 10V10C13 10.9319 13 11.3978 12.8478 11.7654C12.6448 12.2554 12.2554 12.6448 11.7654 12.8478C11.3978 13 10.9319 13 10 13V13C9.06812 13 8.60218 13 8.23463 12.8478C7.74458 12.6448 7.35523 12.2554 7.15224 11.7654C7 11.3978 7 10.9319 7 10V10Z" stroke="#101828" stroke-width="2"/>
<circle id="Ellipse 108" cx="16.5" cy="3.5" r="2.5" stroke="#101828" stroke-width="2"/>
<circle id="Ellipse 109" cx="16.5" cy="16.5" r="2.5" stroke="#101828" stroke-width="2"/>
<circle id="Ellipse 110" cx="3.5" cy="16.5" r="2.5" stroke="#101828" stroke-width="2"/>
<circle id="Ellipse 111" cx="3.5" cy="3.5" r="2.5" stroke="#101828" stroke-width="2"/>
<path id="Vector 48" d="M5.5 5.5L7.5 7.5M5.5 14.5L7 13M14.5 14.5L13 13M13 7L14.5 5.5" stroke="#101828" stroke-width="2" stroke-linecap="square"/>
</g>
</svg>
